<svg xmlns="http://www.w3.org/2000/svg" viewBox="0 0 512 512">
  <rect width="512" height="512" rx="96" fill="#0a0a0f"/>
  <line x1="256" y1="172" x2="136" y2="296" stroke="#e8ff47" stroke-width="4" stroke-linecap="round" opacity="0.55"/>
  <line x1="256" y1="172" x2="376" y2="296" stroke="#e8ff47" stroke-width="4" stroke-linecap="round" opacity="0.55"/>
  <line x1="136" y1="296" x2="256" y2="376" stroke="#e8ff47" stroke-width="4" stroke-linecap="round" opacity="0.55"/>
  <line x1="376" y1="296" x2="256" y2="376" stroke="#e8ff47" stroke-width="4" stroke-linecap="round" opacity="0.55"/>
  <line x1="136" y1="296" x2="376" y2="296" stroke="#e8ff47" stroke-width="3" stroke-linecap="round" opacity="0.25"/>
  <line x1="256" y1="172" x2="164" y2="118" stroke="#e8ff47" stroke-width="2.5" stroke-linecap="round" opacity="0.3"/>
  <line x1="256" y1="172" x2="348" y2="118" stroke="#e8ff47" stroke-width="2.5" stroke-linecap="round" opacity="0.3"/>
  <line x1="136" y1="296" x2="80" y2="254" stroke="#e8ff47" stroke-width="2.5" stroke-linecap="round" opacity="0.3"/>
  <line x1="376" y1="296" x2="432" y2="254" stroke="#e8ff47" stroke-width="2.5" stroke-linecap="round" opacity="0.3"/>
  <circle cx="164" cy="118" r="12" fill="#1a1a24" stroke="#e8ff47" stroke-width="3" opacity="0.65"/>
  <circle cx="348" cy="118" r="12" fill="#1a1a24" stroke="#e8ff47" stroke-width="3" opacity="0.65"/>
  <circle cx="80" cy="254" r="12" fill="#1a1a24" stroke="#e8ff47" stroke-width="3" opacity="0.65"/>
  <circle cx="432" cy="254" r="12" fill="#1a1a24" stroke="#e8ff47" stroke-width="3" opacity="0.65"/>
  <circle cx="136" cy="296" r="22" fill="#1a1a24" stroke="#e8ff47" stroke-width="4"/>
  <circle cx="376" cy="296" r="22" fill="#1a1a24" stroke="#e8ff47" stroke-width="4"/>
  <circle cx="256" cy="376" r="22" fill="#1a1a24" stroke="#e8ff47" stroke-width="4"/>
  <circle cx="136" cy="296" r="10" fill="#e8ff47"/>
  <circle cx="376" cy="296" r="10" fill="#e8ff47"/>
  <circle cx="256" cy="376" r="10" fill="#e8ff47"/>
  <circle cx="256" cy="172" r="38" fill="#e8ff47"/>
  <circle cx="256" cy="172" r="18" fill="#0a0a0f"/>
  <circle cx="256" cy="172" r="7" fill="#e8ff47"/>
  <text x="256" y="468" font-family="Arial Black,sans-serif" font-size="56" font-weight="800" fill="#f0f0f8" text-anchor="middle" letter-spacing="4">connect</text>
  <rect x="148" y="478" width="216" height="4" rx="2" fill="#e8ff47"/>
</svg>